<svg xmlns="http://www.w3.org/2000/svg" viewBox="0 0 800 450">
<defs><linearGradient id="g" x1="0" y1="0" x2="1" y2="1"><stop offset="0" stop-color="#0f172a"/><stop offset="1" stop-color="#312e81"/></linearGradient></defs>
<rect width="800" height="450" fill="url(#g)"/>
<circle cx="400.0" cy="160.4" r="1.6" fill="#22d3ee" opacity="0.85"/><circle cx="412.7" cy="163.6" r="1.6" fill="#6366f1" opacity="0.85"/><circle cx="425.4" cy="166.7" r="1.6" fill="#6366f1" opacity="0.85"/><circle cx="438.0" cy="169.9" r="1.6" fill="#22d3ee" opacity="0.85"/><circle cx="450.5" cy="172.9" r="1.6" fill="#6366f1" opacity="0.85"/><circle cx="462.8" cy="175.9" r="1.6" fill="#6366f1" opacity="0.85"/><circle cx="474.9" cy="178.8" r="1.6" fill="#22d3ee" opacity="0.85"/><circle cx="486.8" cy="181.6" r="1.6" fill="#6366f1" opacity="0.85"/><circle cx="498.3" cy="184.3" r="1.6" fill="#6366f1" opacity="0.85"/><circle cx="509.5" cy="186.9" r="1.6" fill="#22d3ee" opacity="0.85"/><circle cx="520.4" cy="189.3" r="1.6" fill="#6366f1" opacity="0.85"/><circle cx="530.9" cy="191.5" r="1.6" fill="#6366f1" opacity="0.85"/><circle cx="541.0" cy="193.5" r="1.6" fill="#22d3ee" opacity="0.85"/><circle cx="550.6" cy="195.4" r="1.6" fill="#6366f1" opacity="0.85"/><circle cx="559.8" cy="197.0" r="1.6" fill="#6366f1" opacity="0.85"/><circle cx="568.5" cy="198.5" r="1.6" fill="#22d3ee" opacity="0.85"/><circle cx="576.6" cy="199.7" r="1.6" fill="#6366f1" opacity="0.85"/><circle cx="584.3" cy="200.6" r="1.6" fill="#6366f1" opacity="0.85"/><circle cx="591.5" cy="201.4" r="1.6" fill="#22d3ee" opacity="0.85"/><circle cx="598.1" cy="201.9" r="1.6" fill="#6366f1" opacity="0.85"/><circle cx="604.2" cy="202.1" r="1.6" fill="#6366f1" opacity="0.85"/><circle cx="609.7" cy="202.1" r="1.6" fill="#22d3ee" opacity="0.85"/><circle cx="614.7" cy="201.8" r="1.6" fill="#6366f1" opacity="0.85"/><circle cx="619.2" cy="201.2" r="1.6" fill="#6366f1" opacity="0.85"/><circle cx="623.2" cy="200.4" r="1.6" fill="#22d3ee" opacity="0.85"/><circle cx="626.7" cy="199.4" r="1.6" fill="#6366f1" opacity="0.85"/><circle cx="629.7" cy="198.1" r="1.6" fill="#6366f1" opacity="0.85"/><circle cx="632.2" cy="196.5" r="1.6" fill="#22d3ee" opacity="0.85"/><circle cx="634.3" cy="194.7" r="1.6" fill="#6366f1" opacity="0.85"/><circle cx="636.0" cy="192.7" r="1.6" fill="#6366f1" opacity="0.85"/><circle cx="637.2" cy="190.4" r="1.6" fill="#22d3ee" opacity="0.85"/><circle cx="638.1" cy="187.9" r="1.6" fill="#6366f1" opacity="0.85"/><circle cx="638.6" cy="185.2" r="1.6" fill="#6366f1" opacity="0.85"/><circle cx="638.7" cy="182.3" r="1.6" fill="#22d3ee" opacity="0.85"/><circle cx="638.6" cy="179.2" r="1.6" fill="#6366f1" opacity="0.85"/><circle cx="638.2" cy="175.9" r="1.6" fill="#6366f1" opacity="0.85"/><circle cx="637.6" cy="172.5" r="1.6" fill="#22d3ee" opacity="0.85"/><circle cx="636.7" cy="168.9" r="1.6" fill="#6366f1" opacity="0.85"/><circle cx="635.7" cy="165.1" r="1.6" fill="#6366f1" opacity="0.85"/><circle cx="634.5" cy="161.3" r="1.6" fill="#22d3ee" opacity="0.85"/><circle cx="633.2" cy="157.4" r="1.6" fill="#6366f1" opacity="0.85"/><circle cx="631.7" cy="153.3" r="1.6" fill="#6366f1" opacity="0.85"/><circle cx="630.2" cy="149.2" r="1.6" fill="#22d3ee" opacity="0.85"/><circle cx="628.6" cy="145.1" r="1.6" fill="#6366f1" opacity="0.85"/><circle cx="626.9" cy="140.9" r="1.6" fill="#6366f1" opacity="0.85"/><circle cx="625.3" cy="136.7" r="1.6" fill="#22d3ee" opacity="0.85"/><circle cx="623.6" cy="132.6" r="1.6" fill="#6366f1" opacity="0.85"/><circle cx="622.0" cy="128.4" r="1.6" fill="#6366f1" opacity="0.85"/><circle cx="620.3" cy="124.3" r="1.6" fill="#22d3ee" opacity="0.85"/><circle cx="618.7" cy="120.3" r="1.6" fill="#6366f1" opacity="0.85"/><circle cx="617.1" cy="116.3" r="1.6" fill="#6366f1" opacity="0.85"/><circle cx="615.5" cy="112.4" r="1.6" fill="#22d3ee" opacity="0.85"/><circle cx="614.0" cy="108.7" r="1.6" fill="#6366f1" opacity="0.85"/><circle cx="612.5" cy="105.0" r="1.6" fill="#6366f1" opacity="0.85"/><circle cx="611.1" cy="101.6" r="1.6" fill="#22d3ee" opacity="0.85"/><circle cx="609.6" cy="98.3" r="1.6" fill="#6366f1" opacity="0.85"/><circle cx="608.2" cy="95.1" r="1.6" fill="#6366f1" opacity="0.85"/><circle cx="606.7" cy="92.2" r="1.6" fill="#22d3ee" opacity="0.85"/><circle cx="605.3" cy="89.4" r="1.6" fill="#6366f1" opacity="0.85"/><circle cx="603.8" cy="86.9" r="1.6" fill="#6366f1" opacity="0.85"/><circle cx="602.3" cy="84.6" r="1.6" fill="#22d3ee" opacity="0.85"/><circle cx="600.7" cy="82.5" r="1.6" fill="#6366f1" opacity="0.85"/><circle cx="599.0" cy="80.7" r="1.6" fill="#6366f1" opacity="0.85"/><circle cx="597.2" cy="79.2" r="1.6" fill="#22d3ee" opacity="0.85"/><circle cx="595.2" cy="77.8" r="1.6" fill="#6366f1" opacity="0.85"/><circle cx="593.1" cy="76.8" r="1.6" fill="#6366f1" opacity="0.85"/><circle cx="590.8" cy="76.0" r="1.6" fill="#22d3ee" opacity="0.85"/><circle cx="588.3" cy="75.5" r="1.6" fill="#6366f1" opacity="0.85"/><circle cx="585.6" cy="75.3" r="1.6" fill="#6366f1" opacity="0.85"/><circle cx="582.6" cy="75.3" r="1.6" fill="#22d3ee" opacity="0.85"/><circle cx="579.3" cy="75.6" r="1.6" fill="#6366f1" opacity="0.85"/><circle cx="575.7" cy="76.2" r="1.6" fill="#6366f1" opacity="0.85"/><circle cx="571.8" cy="77.1" r="1.6" fill="#22d3ee" opacity="0.85"/><circle cx="567.5" cy="78.2" r="1.6" fill="#6366f1" opacity="0.85"/><circle cx="562.8" cy="79.5" r="1.6" fill="#6366f1" opacity="0.85"/><circle cx="557.8" cy="81.1" r="1.6" fill="#22d3ee" opacity="0.85"/><circle cx="552.3" cy="83.0" r="1.6" fill="#6366f1" opacity="0.85"/><circle cx="546.5" cy="85.0" r="1.6" fill="#6366f1" opacity="0.85"/><circle cx="540.2" cy="87.3" r="1.6" fill="#22d3ee" opacity="0.85"/><circle cx="533.5" cy="89.8" r="1.6" fill="#6366f1" opacity="0.85"/><circle cx="526.3" cy="92.5" r="1.6" fill="#6366f1" opacity="0.85"/><circle cx="518.7" cy="95.4" r="1.6" fill="#22d3ee" opacity="0.85"/><circle cx="510.7" cy="98.4" r="1.6" fill="#6366f1" opacity="0.85"/><circle cx="502.2" cy="101.6" r="1.6" fill="#6366f1" opacity="0.85"/><circle cx="493.4" cy="104.9" r="1.6" fill="#22d3ee" opacity="0.85"/><circle cx="484.1" cy="108.3" r="1.6" fill="#6366f1" opacity="0.85"/><circle cx="474.4" cy="111.8" r="1.6" fill="#6366f1" opacity="0.85"/><circle cx="464.3" cy="115.5" r="1.6" fill="#22d3ee" opacity="0.85"/><circle cx="453.9" cy="119.1" r="1.6" fill="#6366f1" opacity="0.85"/><circle cx="443.1" cy="122.9" r="1.6" fill="#6366f1" opacity="0.85"/><circle cx="432.1" cy="126.6" r="1.6" fill="#22d3ee" opacity="0.85"/><circle cx="420.7" cy="130.4" r="1.6" fill="#6366f1" opacity="0.85"/><circle cx="409.1" cy="134.2" r="1.6" fill="#6366f1" opacity="0.85"/><circle cx="397.3" cy="137.9" r="1.6" fill="#22d3ee" opacity="0.85"/><circle cx="385.3" cy="141.6" r="1.6" fill="#6366f1" opacity="0.85"/><circle cx="373.1" cy="145.2" r="1.6" fill="#6366f1" opacity="0.85"/><circle cx="360.9" cy="148.8" r="1.6" fill="#22d3ee" opacity="0.85"/><circle cx="348.6" cy="152.2" r="1.6" fill="#6366f1" opacity="0.85"/><circle cx="336.3" cy="155.6" r="1.6" fill="#6366f1" opacity="0.85"/><circle cx="323.9" cy="158.8" r="1.6" fill="#22d3ee" opacity="0.85"/><circle cx="311.7" cy="161.9" r="1.6" fill="#6366f1" opacity="0.85"/><circle cx="299.6" cy="164.8" r="1.6" fill="#6366f1" opacity="0.85"/><circle cx="287.6" cy="167.5" r="1.6" fill="#22d3ee" opacity="0.85"/><circle cx="275.8" cy="170.1" r="1.6" fill="#6366f1" opacity="0.85"/><circle cx="264.2" cy="172.4" r="1.6" fill="#6366f1" opacity="0.85"/><circle cx="252.9" cy="174.6" r="1.6" fill="#22d3ee" opacity="0.85"/><circle cx="241.9" cy="176.5" r="1.6" fill="#6366f1" opacity="0.85"/><circle cx="231.3" cy="178.2" r="1.6" fill="#6366f1" opacity="0.85"/><circle cx="221.0" cy="179.7" r="1.6" fill="#22d3ee" opacity="0.85"/><circle cx="211.2" cy="181.0" r="1.6" fill="#6366f1" opacity="0.85"/><circle cx="201.8" cy="182.0" r="1.6" fill="#6366f1" opacity="0.85"/><circle cx="192.9" cy="182.7" r="1.6" fill="#22d3ee" opacity="0.85"/><circle cx="184.6" cy="183.2" r="1.6" fill="#6366f1" opacity="0.85"/><circle cx="176.7" cy="183.4" r="1.6" fill="#6366f1" opacity="0.85"/><circle cx="169.4" cy="183.4" r="1.6" fill="#22d3ee" opacity="0.85"/><circle cx="162.7" cy="183.2" r="1.6" fill="#6366f1" opacity="0.85"/><circle cx="156.5" cy="182.6" r="1.6" fill="#6366f1" opacity="0.85"/><circle cx="151.0" cy="181.9" r="1.6" fill="#22d3ee" opacity="0.85"/><circle cx="146.0" cy="180.9" r="1.6" fill="#6366f1" opacity="0.85"/><circle cx="141.7" cy="179.6" r="1.6" fill="#6366f1" opacity="0.85"/><circle cx="138.0" cy="178.2" r="1.6" fill="#22d3ee" opacity="0.85"/><circle cx="134.8" cy="176.5" r="1.6" fill="#6366f1" opacity="0.85"/><circle cx="132.3" cy="174.6" r="1.6" fill="#6366f1" opacity="0.85"/><circle cx="130.3" cy="172.5" r="1.6" fill="#22d3ee" opacity="0.85"/><circle cx="128.9" cy="170.2" r="1.6" fill="#6366f1" opacity="0.85"/><circle cx="128.1" cy="167.7" r="1.6" fill="#6366f1" opacity="0.85"/><circle cx="127.9" cy="165.1" r="1.6" fill="#22d3ee" opacity="0.85"/><circle cx="128.1" cy="162.4" r="1.6" fill="#6366f1" opacity="0.85"/><circle cx="128.9" cy="159.5" r="1.6" fill="#6366f1" opacity="0.85"/><circle cx="130.1" cy="156.5" r="1.6" fill="#22d3ee" opacity="0.85"/><circle cx="131.8" cy="153.3" r="1.6" fill="#6366f1" opacity="0.85"/><circle cx="133.9" cy="150.1" r="1.6" fill="#6366f1" opacity="0.85"/><circle cx="136.4" cy="146.9" r="1.6" fill="#22d3ee" opacity="0.85"/><circle cx="139.2" cy="143.6" r="1.6" fill="#6366f1" opacity="0.85"/><circle cx="142.4" cy="140.2" r="1.6" fill="#6366f1" opacity="0.85"/><circle cx="145.9" cy="136.9" r="1.6" fill="#22d3ee" opacity="0.85"/><circle cx="149.6" cy="133.5" r="1.6" fill="#6366f1" opacity="0.85"/><circle cx="153.6" cy="130.2" r="1.6" fill="#6366f1" opacity="0.85"/><circle cx="157.7" cy="126.9" r="1.6" fill="#22d3ee" opacity="0.85"/><circle cx="162.1" cy="123.7" r="1.6" fill="#6366f1" opacity="0.85"/><circle cx="166.6" cy="120.6" r="1.6" fill="#6366f1" opacity="0.85"/><circle cx="171.1" cy="117.5" r="1.6" fill="#22d3ee" opacity="0.85"/><circle cx="175.8" cy="114.6" r="1.6" fill="#6366f1" opacity="0.85"/><circle cx="180.5" cy="111.8" r="1.6" fill="#6366f1" opacity="0.85"/><circle cx="185.3" cy="109.1" r="1.6" fill="#22d3ee" opacity="0.85"/><circle cx="190.1" cy="106.6" r="1.6" fill="#6366f1" opacity="0.85"/><circle cx="194.8" cy="104.3" r="1.6" fill="#6366f1" opacity="0.85"/><circle cx="199.6" cy="102.1" r="1.6" fill="#22d3ee" opacity="0.85"/><circle cx="204.3" cy="100.2" r="1.6" fill="#6366f1" opacity="0.85"/><circle cx="208.9" cy="98.4" r="1.6" fill="#6366f1" opacity="0.85"/><circle cx="213.5" cy="96.9" r="1.6" fill="#22d3ee" opacity="0.85"/><circle cx="218.0" cy="95.7" r="1.6" fill="#6366f1" opacity="0.85"/><circle cx="222.4" cy="94.6" r="1.6" fill="#6366f1" opacity="0.85"/><circle cx="226.8" cy="93.8" r="1.6" fill="#22d3ee" opacity="0.85"/><circle cx="231.0" cy="93.3" r="1.6" fill="#6366f1" opacity="0.85"/><circle cx="235.3" cy="93.0" r="1.6" fill="#6366f1" opacity="0.85"/><circle cx="239.4" cy="93.0" r="1.6" fill="#22d3ee" opacity="0.85"/><circle cx="243.5" cy="93.3" r="1.6" fill="#6366f1" opacity="0.85"/><circle cx="247.5" cy="93.8" r="1.6" fill="#6366f1" opacity="0.85"/><circle cx="251.5" cy="94.6" r="1.6" fill="#22d3ee" opacity="0.85"/><circle cx="255.5" cy="95.6" r="1.6" fill="#6366f1" opacity="0.85"/><circle cx="259.5" cy="96.9" r="1.6" fill="#6366f1" opacity="0.85"/><circle cx="263.5" cy="98.5" r="1.6" fill="#22d3ee" opacity="0.85"/><circle cx="267.5" cy="100.3" r="1.6" fill="#6366f1" opacity="0.85"/><circle cx="271.6" cy="102.4" r="1.6" fill="#6366f1" opacity="0.85"/><circle cx="275.7" cy="104.7" r="1.6" fill="#22d3ee" opacity="0.85"/><circle cx="280.0" cy="107.3" r="1.6" fill="#6366f1" opacity="0.85"/><circle cx="284.4" cy="110.0" r="1.6" fill="#6366f1" opacity="0.85"/><circle cx="289.0" cy="113.0" r="1.6" fill="#22d3ee" opacity="0.85"/><circle cx="293.7" cy="116.2" r="1.6" fill="#6366f1" opacity="0.85"/><circle cx="298.6" cy="119.6" r="1.6" fill="#6366f1" opacity="0.85"/><circle cx="303.7" cy="123.1" r="1.6" fill="#22d3ee" opacity="0.85"/><circle cx="309.1" cy="126.8" r="1.6" fill="#6366f1" opacity="0.85"/><circle cx="314.7" cy="130.6" r="1.6" fill="#6366f1" opacity="0.85"/><circle cx="320.6" cy="134.6" r="1.6" fill="#22d3ee" opacity="0.85"/><circle cx="326.7" cy="138.6" r="1.6" fill="#6366f1" opacity="0.85"/><circle cx="333.2" cy="142.8" r="1.6" fill="#6366f1" opacity="0.85"/><circle cx="339.9" cy="147.0" r="1.6" fill="#22d3ee" opacity="0.85"/><circle cx="347.0" cy="151.3" r="1.6" fill="#6366f1" opacity="0.85"/><circle cx="354.4" cy="155.7" r="1.6" fill="#6366f1" opacity="0.85"/><circle cx="362.2" cy="160.0" r="1.6" fill="#22d3ee" opacity="0.85"/><circle cx="370.3" cy="164.4" r="1.6" fill="#6366f1" opacity="0.85"/><circle cx="378.7" cy="168.7" r="1.6" fill="#6366f1" opacity="0.85"/><circle cx="387.4" cy="173.0" r="1.6" fill="#22d3ee" opacity="0.85"/><circle cx="396.4" cy="177.2" r="1.6" fill="#6366f1" opacity="0.85"/><circle cx="405.7" cy="181.4" r="1.6" fill="#6366f1" opacity="0.85"/><circle cx="415.4" cy="185.5" r="1.6" fill="#22d3ee" opacity="0.85"/><circle cx="425.3" cy="189.5" r="1.6" fill="#6366f1" opacity="0.85"/><circle cx="435.4" cy="193.3" r="1.6" fill="#6366f1" opacity="0.85"/><circle cx="445.8" cy="197.0" r="1.6" fill="#22d3ee" opacity="0.85"/><circle cx="456.3" cy="200.6" r="1.6" fill="#6366f1" opacity="0.85"/><circle cx="467.1" cy="204.0" r="1.6" fill="#6366f1" opacity="0.85"/><circle cx="478.0" cy="207.2" r="1.6" fill="#22d3ee" opacity="0.85"/><circle cx="489.0" cy="210.2" r="1.6" fill="#6366f1" opacity="0.85"/><circle cx="500.1" cy="213.0" r="1.6" fill="#6366f1" opacity="0.85"/><circle cx="511.2" cy="215.6" r="1.6" fill="#22d3ee" opacity="0.85"/><circle cx="522.3" cy="218.0" r="1.6" fill="#6366f1" opacity="0.85"/><circle cx="533.4" cy="220.1" r="1.6" fill="#6366f1" opacity="0.85"/><circle cx="544.4" cy="222.0" r="1.6" fill="#22d3ee" opacity="0.85"/><circle cx="555.3" cy="223.6" r="1.6" fill="#6366f1" opacity="0.85"/><circle cx="566.0" cy="224.9" r="1.6" fill="#6366f1" opacity="0.85"/><circle cx="576.6" cy="226.0" r="1.6" fill="#22d3ee" opacity="0.85"/><circle cx="586.9" cy="226.9" r="1.6" fill="#6366f1" opacity="0.85"/><circle cx="596.9" cy="227.5" r="1.6" fill="#6366f1" opacity="0.85"/><circle cx="606.6" cy="227.8" r="1.6" fill="#22d3ee" opacity="0.85"/><circle cx="615.9" cy="227.8" r="1.6" fill="#6366f1" opacity="0.85"/><circle cx="624.9" cy="227.6" r="1.6" fill="#6366f1" opacity="0.85"/><circle cx="633.4" cy="227.1" r="1.6" fill="#22d3ee" opacity="0.85"/><circle cx="641.4" cy="226.3" r="1.6" fill="#6366f1" opacity="0.85"/><circle cx="649.0" cy="225.3" r="1.6" fill="#6366f1" opacity="0.85"/><circle cx="656.0" cy="224.1" r="1.6" fill="#22d3ee" opacity="0.85"/><circle cx="662.5" cy="222.6" r="1.6" fill="#6366f1" opacity="0.85"/><circle cx="668.4" cy="221.0" r="1.6" fill="#6366f1" opacity="0.85"/><circle cx="673.7" cy="219.0" r="1.6" fill="#22d3ee" opacity="0.85"/><circle cx="678.4" cy="216.9" r="1.6" fill="#6366f1" opacity="0.85"/><circle cx="682.4" cy="214.6" r="1.6" fill="#6366f1" opacity="0.85"/><circle cx="685.9" cy="212.2" r="1.6" fill="#22d3ee" opacity="0.85"/><circle cx="688.6" cy="209.5" r="1.6" fill="#6366f1" opacity="0.85"/><circle cx="690.8" cy="206.8" r="1.6" fill="#6366f1" opacity="0.85"/><circle cx="692.3" cy="203.8" r="1.6" fill="#22d3ee" opacity="0.85"/><circle cx="693.1" cy="200.8" r="1.6" fill="#6366f1" opacity="0.85"/><circle cx="693.3" cy="197.7" r="1.6" fill="#6366f1" opacity="0.85"/><circle cx="692.8" cy="194.5" r="1.6" fill="#22d3ee" opacity="0.85"/><circle cx="691.8" cy="191.2" r="1.6" fill="#6366f1" opacity="0.85"/><circle cx="690.1" cy="187.9" r="1.6" fill="#6366f1" opacity="0.85"/><circle cx="687.9" cy="184.5" r="1.6" fill="#22d3ee" opacity="0.85"/><circle cx="685.1" cy="181.2" r="1.6" fill="#6366f1" opacity="0.85"/><circle cx="681.7" cy="177.8" r="1.6" fill="#6366f1" opacity="0.85"/><circle cx="677.8" cy="174.5" r="1.6" fill="#22d3ee" opacity="0.85"/><circle cx="673.5" cy="171.3" r="1.6" fill="#6366f1" opacity="0.85"/><circle cx="668.7" cy="168.0" r="1.6" fill="#6366f1" opacity="0.85"/><circle cx="663.5" cy="164.9" r="1.6" fill="#22d3ee" opacity="0.85"/><circle cx="657.8" cy="161.9" r="1.6" fill="#6366f1" opacity="0.85"/><circle cx="651.9" cy="159.0" r="1.6" fill="#6366f1" opacity="0.85"/><circle cx="645.6" cy="156.2" r="1.6" fill="#22d3ee" opacity="0.85"/><circle cx="639.0" cy="153.5" r="1.6" fill="#6366f1" opacity="0.85"/><circle cx="632.2" cy="151.0" r="1.6" fill="#6366f1" opacity="0.85"/><circle cx="625.2" cy="148.7" r="1.6" fill="#22d3ee" opacity="0.85"/><circle cx="618.0" cy="146.6" r="1.6" fill="#6366f1" opacity="0.85"/><circle cx="610.6" cy="144.7" r="1.6" fill="#6366f1" opacity="0.85"/><circle cx="603.2" cy="142.9" r="1.6" fill="#22d3ee" opacity="0.85"/><circle cx="595.6" cy="141.4" r="1.6" fill="#6366f1" opacity="0.85"/><circle cx="588.1" cy="140.1" r="1.6" fill="#6366f1" opacity="0.85"/><circle cx="580.5" cy="139.1" r="1.6" fill="#22d3ee" opacity="0.85"/><circle cx="572.9" cy="138.3" r="1.6" fill="#6366f1" opacity="0.85"/><circle cx="565.4" cy="137.7" r="1.6" fill="#6366f1" opacity="0.85"/><circle cx="557.9" cy="137.4" r="1.6" fill="#22d3ee" opacity="0.85"/><circle cx="550.5" cy="137.4" r="1.6" fill="#6366f1" opacity="0.85"/><circle cx="543.2" cy="137.5" r="1.6" fill="#6366f1" opacity="0.85"/><circle cx="536.0" cy="138.0" r="1.6" fill="#22d3ee" opacity="0.85"/><circle cx="529.0" cy="138.7" r="1.6" fill="#6366f1" opacity="0.85"/><circle cx="522.1" cy="139.6" r="1.6" fill="#6366f1" opacity="0.85"/><circle cx="515.4" cy="140.8" r="1.6" fill="#22d3ee" opacity="0.85"/><circle cx="508.8" cy="142.3" r="1.6" fill="#6366f1" opacity="0.85"/><circle cx="502.3" cy="143.9" r="1.6" fill="#6366f1" opacity="0.85"/><circle cx="496.1" cy="145.8" r="1.6" fill="#22d3ee" opacity="0.85"/><circle cx="489.9" cy="147.9" r="1.6" fill="#6366f1" opacity="0.85"/><circle cx="483.9" cy="150.3" r="1.6" fill="#6366f1" opacity="0.85"/><circle cx="478.1" cy="152.8" r="1.6" fill="#22d3ee" opacity="0.85"/><circle cx="472.4" cy="155.5" r="1.6" fill="#6366f1" opacity="0.85"/><circle cx="466.7" cy="158.4" r="1.6" fill="#6366f1" opacity="0.85"/><circle cx="461.2" cy="161.4" r="1.6" fill="#22d3ee" opacity="0.85"/><circle cx="455.8" cy="164.6" r="1.6" fill="#6366f1" opacity="0.85"/><circle cx="450.4" cy="167.9" r="1.6" fill="#6366f1" opacity="0.85"/><circle cx="445.1" cy="171.4" r="1.6" fill="#22d3ee" opacity="0.85"/><circle cx="439.8" cy="174.9" r="1.6" fill="#6366f1" opacity="0.85"/><circle cx="434.5" cy="178.5" r="1.6" fill="#6366f1" opacity="0.85"/><circle cx="429.1" cy="182.2" r="1.6" fill="#22d3ee" opacity="0.85"/><circle cx="423.8" cy="186.0" r="1.6" fill="#6366f1" opacity="0.85"/><circle cx="418.3" cy="189.7" r="1.6" fill="#6366f1" opacity="0.85"/><circle cx="412.8" cy="193.5" r="1.6" fill="#22d3ee" opacity="0.85"/><circle cx="407.2" cy="197.2" r="1.6" fill="#6366f1" opacity="0.85"/><circle cx="401.5" cy="201.0" r="1.6" fill="#6366f1" opacity="0.85"/><circle cx="395.6" cy="204.7" r="1.6" fill="#22d3ee" opacity="0.85"/><circle cx="389.5" cy="208.3" r="1.6" fill="#6366f1" opacity="0.85"/><circle cx="383.3" cy="211.9" r="1.6" fill="#6366f1" opacity="0.85"/><circle cx="376.9" cy="215.3" r="1.6" fill="#22d3ee" opacity="0.85"/><circle cx="370.3" cy="218.6" r="1.6" fill="#6366f1" opacity="0.85"/><circle cx="363.5" cy="221.8" r="1.6" fill="#6366f1" opacity="0.85"/><circle cx="356.5" cy="224.9" r="1.6" fill="#22d3ee" opacity="0.85"/><circle cx="349.2" cy="227.8" r="1.6" fill="#6366f1" opacity="0.85"/><circle cx="341.7" cy="230.5" r="1.6" fill="#6366f1" opacity="0.85"/><circle cx="334.1" cy="233.1" r="1.6" fill="#22d3ee" opacity="0.85"/><circle cx="326.2" cy="235.4" r="1.6" fill="#6366f1" opacity="0.85"/><circle cx="318.0" cy="237.5" r="1.6" fill="#6366f1" opacity="0.85"/><circle cx="309.7" cy="239.4" r="1.6" fill="#22d3ee" opacity="0.85"/><circle cx="301.2" cy="241.0" r="1.6" fill="#6366f1" opacity="0.85"/><circle cx="292.6" cy="242.4" r="1.6" fill="#6366f1" opacity="0.85"/><circle cx="283.8" cy="243.6" r="1.6" fill="#22d3ee" opacity="0.85"/><circle cx="274.8" cy="244.5" r="1.6" fill="#6366f1" opacity="0.85"/><circle cx="265.8" cy="245.1" r="1.6" fill="#6366f1" opacity="0.85"/><circle cx="256.6" cy="245.4" r="1.6" fill="#22d3ee" opacity="0.85"/><circle cx="247.4" cy="245.5" r="1.6" fill="#6366f1" opacity="0.85"/><circle cx="238.2" cy="245.3" r="1.6" fill="#6366f1" opacity="0.85"/><circle cx="229.0" cy="244.9" r="1.6" fill="#22d3ee" opacity="0.85"/><circle cx="219.9" cy="244.2" r="1.6" fill="#6366f1" opacity="0.85"/><circle cx="210.8" cy="243.2" r="1.6" fill="#6366f1" opacity="0.85"/><circle cx="201.9" cy="241.9" r="1.6" fill="#22d3ee" opacity="0.85"/><circle cx="193.1" cy="240.4" r="1.6" fill="#6366f1" opacity="0.85"/><circle cx="184.5" cy="238.6" r="1.6" fill="#6366f1" opacity="0.85"/><circle cx="176.1" cy="236.6" r="1.6" fill="#22d3ee" opacity="0.85"/><circle cx="168.0" cy="234.3" r="1.6" fill="#6366f1" opacity="0.85"/><circle cx="160.2" cy="231.8" r="1.6" fill="#6366f1" opacity="0.85"/><circle cx="152.7" cy="229.1" r="1.6" fill="#22d3ee" opacity="0.85"/><circle cx="145.6" cy="226.2" r="1.6" fill="#6366f1" opacity="0.85"/><circle cx="139.0" cy="223.1" r="1.6" fill="#6366f1" opacity="0.85"/><circle cx="132.8" cy="219.8" r="1.6" fill="#22d3ee" opacity="0.85"/><circle cx="127.0" cy="216.4" r="1.6" fill="#6366f1" opacity="0.85"/><circle cx="121.8" cy="212.8" r="1.6" fill="#6366f1" opacity="0.85"/><circle cx="117.1" cy="209.1" r="1.6" fill="#22d3ee" opacity="0.85"/><circle cx="113.0" cy="205.2" r="1.6" fill="#6366f1" opacity="0.85"/><circle cx="109.5" cy="201.3" r="1.6" fill="#6366f1" opacity="0.85"/><circle cx="106.5" cy="197.2" r="1.6" fill="#22d3ee" opacity="0.85"/><circle cx="104.2" cy="193.1" r="1.6" fill="#6366f1" opacity="0.85"/><circle cx="102.6" cy="189.0" r="1.6" fill="#6366f1" opacity="0.85"/><circle cx="101.6" cy="184.8" r="1.6" fill="#22d3ee" opacity="0.85"/><circle cx="101.2" cy="180.6" r="1.6" fill="#6366f1" opacity="0.85"/><circle cx="101.5" cy="176.5" r="1.6" fill="#6366f1" opacity="0.85"/><circle cx="102.5" cy="172.3" r="1.6" fill="#22d3ee" opacity="0.85"/><circle cx="104.1" cy="168.2" r="1.6" fill="#6366f1" opacity="0.85"/><circle cx="106.4" cy="164.2" r="1.6" fill="#6366f1" opacity="0.85"/><circle cx="109.4" cy="160.2" r="1.6" fill="#22d3ee" opacity="0.85"/><circle cx="112.9" cy="156.4" r="1.6" fill="#6366f1" opacity="0.85"/><circle cx="117.1" cy="152.6" r="1.6" fill="#6366f1" opacity="0.85"/><circle cx="121.8" cy="149.0" r="1.6" fill="#22d3ee" opacity="0.85"/><circle cx="127.2" cy="145.5" r="1.6" fill="#6366f1" opacity="0.85"/><circle cx="133.0" cy="142.2" r="1.6" fill="#6366f1" opacity="0.85"/><circle cx="139.4" cy="139.1" r="1.6" fill="#22d3ee" opacity="0.85"/><circle cx="146.3" cy="136.1" r="1.6" fill="#6366f1" opacity="0.85"/><circle cx="153.7" cy="133.4" r="1.6" fill="#6366f1" opacity="0.85"/><circle cx="161.4" cy="130.8" r="1.6" fill="#22d3ee" opacity="0.85"/><circle cx="169.6" cy="128.5" r="1.6" fill="#6366f1" opacity="0.85"/><circle cx="178.1" cy="126.4" r="1.6" fill="#6366f1" opacity="0.85"/><circle cx="186.9" cy="124.6" r="1.6" fill="#22d3ee" opacity="0.85"/><circle cx="196.0" cy="123.0" r="1.6" fill="#6366f1" opacity="0.85"/><circle cx="205.3" cy="121.6" r="1.6" fill="#6366f1" opacity="0.85"/><circle cx="214.8" cy="120.5" r="1.6" fill="#22d3ee" opacity="0.85"/><circle cx="224.5" cy="119.7" r="1.6" fill="#6366f1" opacity="0.85"/><circle cx="234.3" cy="119.1" r="1.6" fill="#6366f1" opacity="0.85"/><circle cx="244.2" cy="118.8" r="1.6" fill="#22d3ee" opacity="0.85"/><circle cx="254.1" cy="118.7" r="1.6" fill="#6366f1" opacity="0.85"/><circle cx="264.0" cy="118.9" r="1.6" fill="#6366f1" opacity="0.85"/><circle cx="273.9" cy="119.3" r="1.6" fill="#22d3ee" opacity="0.85"/><circle cx="283.7" cy="120.0" r="1.6" fill="#6366f1" opacity="0.85"/><circle cx="293.5" cy="120.9" r="1.6" fill="#6366f1" opacity="0.85"/><circle cx="303.1" cy="122.1" r="1.6" fill="#22d3ee" opacity="0.85"/><circle cx="312.6" cy="123.5" r="1.6" fill="#6366f1" opacity="0.85"/><circle cx="321.9" cy="125.1" r="1.6" fill="#6366f1" opacity="0.85"/><circle cx="331.0" cy="126.9" r="1.6" fill="#22d3ee" opacity="0.85"/><circle cx="339.9" cy="128.9" r="1.6" fill="#6366f1" opacity="0.85"/><circle cx="348.6" cy="131.1" r="1.6" fill="#6366f1" opacity="0.85"/><circle cx="357.0" cy="133.5" r="1.6" fill="#22d3ee" opacity="0.85"/><circle cx="365.2" cy="136.0" r="1.6" fill="#6366f1" opacity="0.85"/><circle cx="373.2" cy="138.7" r="1.6" fill="#6366f1" opacity="0.85"/><circle cx="380.8" cy="141.4" r="1.6" fill="#22d3ee" opacity="0.85"/><circle cx="388.3" cy="144.3" r="1.6" fill="#6366f1" opacity="0.85"/><circle cx="395.5" cy="147.3" r="1.6" fill="#6366f1" opacity="0.85"/><circle cx="402.4" cy="150.4" r="1.6" fill="#22d3ee" opacity="0.85"/><circle cx="409.1" cy="153.5" r="1.6" fill="#6366f1" opacity="0.85"/><circle cx="415.6" cy="156.6" r="1.6" fill="#6366f1" opacity="0.85"/>
<text x="400" y="420" text-anchor="middle" font-family="system-ui,sans-serif" font-size="20" fill="#94a3b8">Point-cloud viewer (placeholder poster)</text>
</svg>